<?xml version="1.0" encoding="UTF-8" standalone="no"?>
<!DOCTYPE svg PUBLIC "-//W3C//DTD SVG 1.1//EN"
 "http://www.w3.org/Graphics/SVG/1.1/DTD/svg11.dtd">
<!-- Generated by graphviz version 2.38.0 (20140413.2041)
 -->
<!-- Title: start_kernel Pages: 1 -->
<svg width="1081pt" height="522pt"
 viewBox="0.00 0.00 1081.48 522.00" xmlns="http://www.w3.org/2000/svg" xmlns:xlink="http://www.w3.org/1999/xlink">
<g id="graph0" class="graph" transform="scale(1 1) rotate(0) translate(4 518)">
<title>start_kernel</title>
<polygon fill="white" stroke="none" points="-4,4 -4,-518 1077.48,-518 1077.48,4 -4,4"/>
<!-- start_kernel -->
<g id="node1" class="node"><title>start_kernel</title>
<text text-anchor="middle" x="340.159" y="-491.8" font-family="Times,serif" font-size="14.00">start_kernel</text>
</g>
<!-- setup_arch -->
<g id="node2" class="node"><title>setup_arch</title>
<text text-anchor="middle" x="85.1587" y="-419.8" font-family="Times,serif" font-size="14.00">setup_arch</text>
</g>
<!-- start_kernel&#45;&gt;setup_arch -->
<g id="edge1" class="edge"><title>start_kernel&#45;&gt;setup_arch</title>
<path fill="none" stroke="black" d="M298.785,-485.714C258.632,-476.424 195.835,-461.16 133.176,-442.177"/>
<polygon fill="black" stroke="black" points="134.116,-438.804 123.53,-439.224 132.067,-445.498 134.116,-438.804"/>
</g>
<!-- trap_init -->
<g id="node3" class="node"><title>trap_init</title>
<text text-anchor="middle" x="173.159" y="-419.8" font-family="Times,serif" font-size="14.00">trap_init</text>
</g>
<!-- start_kernel&#45;&gt;trap_init -->
<g id="edge2" class="edge"><title>start_kernel&#45;&gt;trap_init</title>
<path fill="none" stroke="black" d="M298.949,-477.882C276.222,-468.423 247.28,-456.349 214.403,-442.514"/>
<polygon fill="black" stroke="black" points="215.602,-439.222 205.028,-438.566 212.885,-445.673 215.602,-439.222"/>
</g>
<!-- mm_init -->
<g id="node4" class="node"><title>mm_init</title>
<text text-anchor="middle" x="254.159" y="-419.8" font-family="Times,serif" font-size="14.00">mm_init</text>
</g>
<!-- start_kernel&#45;&gt;mm_init -->
<g id="edge3" class="edge"><title>start_kernel&#45;&gt;mm_init</title>
<path fill="none" stroke="black" d="M318.9,-477.697C308.069,-468.881 294.741,-458.032 282.998,-448.474"/>
<polygon fill="black" stroke="black" points="285.138,-445.703 275.173,-442.104 280.719,-451.132 285.138,-445.703"/>
</g>
<!-- sched_init -->
<g id="node5" class="node"><title>sched_init</title>
<text text-anchor="middle" x="340.159" y="-419.8" font-family="Times,serif" font-size="14.00">sched_init</text>
</g>
<!-- start_kernel&#45;&gt;sched_init -->
<g id="edge4" class="edge"><title>start_kernel&#45;&gt;sched_init</title>
<path fill="none" stroke="black" d="M340.159,-477.697C340.159,-469.983 340.159,-460.712 340.159,-452.112"/>
<polygon fill="black" stroke="black" points="343.659,-452.104 340.159,-442.104 336.659,-452.104 343.659,-452.104"/>
</g>
<!-- vfs_caches_init -->
<g id="node6" class="node"><title>vfs_caches_init</title>
<text text-anchor="middle" x="446.159" y="-419.8" font-family="Times,serif" font-size="14.00">vfs_caches_init</text>
</g>
<!-- start_kernel&#45;&gt;vfs_caches_init -->
<g id="edge5" class="edge"><title>start_kernel&#45;&gt;vfs_caches_init</title>
<path fill="none" stroke="black" d="M366.089,-477.876C379.82,-468.808 396.865,-457.552 411.695,-447.759"/>
<polygon fill="black" stroke="black" points="413.713,-450.621 420.128,-442.19 409.855,-444.78 413.713,-450.621"/>
</g>
<!-- proc_root_init -->
<g id="node7" class="node"><title>proc_root_init</title>
<text text-anchor="middle" x="564.159" y="-419.8" font-family="Times,serif" font-size="14.00">proc_root_init</text>
</g>
<!-- start_kernel&#45;&gt;proc_root_init -->
<g id="edge6" class="edge"><title>start_kernel&#45;&gt;proc_root_init</title>
<path fill="none" stroke="black" d="M381.244,-482.161C416.291,-471.209 467.076,-455.338 506.246,-443.098"/>
<polygon fill="black" stroke="black" points="507.437,-446.393 515.937,-440.069 505.349,-439.711 507.437,-446.393"/>
</g>
<!-- rest_init -->
<g id="node8" class="node"><title>rest_init</title>
<text text-anchor="middle" x="661.159" y="-419.8" font-family="Times,serif" font-size="14.00">rest_init</text>
</g>
<!-- start_kernel&#45;&gt;rest_init -->
<g id="edge7" class="edge"><title>start_kernel&#45;&gt;rest_init</title>
<path fill="none" stroke="black" d="M381.305,-490.067C434.709,-483.051 530.721,-468.342 620.2,-441.948"/>
<polygon fill="black" stroke="black" points="621.384,-445.247 629.953,-439.016 619.368,-438.543 621.384,-445.247"/>
</g>
<!-- kernel_init -->
<g id="node9" class="node"><title>kernel_init</title>
<text text-anchor="middle" x="364.159" y="-354.8" font-family="Times,serif" font-size="14.00">[pid=1]</text>
<text text-anchor="middle" x="364.159" y="-340.8" font-family="Times,serif" font-size="14.00"> kernel_thread(kernel_init, </text>
<text text-anchor="middle" x="364.159" y="-326.8" font-family="Times,serif" font-size="14.00"> &#160;&#160;&#160;&#160;&#160;&#160;&#160;&#160;&#160;&#160;&#160;&#160;&#160;&#160;&#160;&#160;&#160;&#160;&#160;&#160;&#160;&#160;&#160;&#160;&#160;&#160;&#160;NULL, CLONE_FS)</text>
</g>
<!-- rest_init&#45;&gt;kernel_init -->
<g id="edge8" class="edge"><title>rest_init&#45;&gt;kernel_init</title>
<path fill="none" stroke="black" d="M629.911,-409.116C626.977,-407.996 624.028,-406.937 621.159,-406 579.224,-392.307 532.479,-380.427 490.475,-370.933"/>
<polygon fill="black" stroke="black" points="490.992,-367.462 480.469,-368.696 489.464,-374.293 490.992,-367.462"/>
</g>
<!-- kthreadd -->
<g id="node10" class="node"><title>kthreadd</title>
<text text-anchor="middle" x="661.159" y="-354.8" font-family="Times,serif" font-size="14.00">[pid=2]</text>
<text text-anchor="middle" x="661.159" y="-340.8" font-family="Times,serif" font-size="14.00"> kernel_thread(kthreadd, </text>
<text text-anchor="middle" x="661.159" y="-326.8" font-family="Times,serif" font-size="14.00"> &#160;&#160;&#160;&#160;&#160;&#160;&#160;&#160;&#160;&#160;&#160;&#160;&#160;&#160;&#160;&#160;&#160;&#160;&#160;&#160;&#160;&#160;&#160;&#160;NULL, CLONE_FS | CLONE_FILES);</text>
</g>
<!-- rest_init&#45;&gt;kthreadd -->
<g id="edge9" class="edge"><title>rest_init&#45;&gt;kthreadd</title>
<path fill="none" stroke="black" d="M661.159,-405.911C661.159,-398.332 661.159,-389.13 661.159,-380.235"/>
<polygon fill="black" stroke="black" points="664.659,-380.05 661.159,-370.05 657.659,-380.05 664.659,-380.05"/>
</g>
<!-- cpu_startup_entry -->
<g id="node11" class="node"><title>cpu_startup_entry</title>
<text text-anchor="middle" x="958.159" y="-340.8" font-family="Times,serif" font-size="14.00">cpu_startup_entry(CPUHP_ONLINE)</text>
</g>
<!-- rest_init&#45;&gt;cpu_startup_entry -->
<g id="edge10" class="edge"><title>rest_init&#45;&gt;cpu_startup_entry</title>
<path fill="none" stroke="black" d="M692.102,-414.978C736.879,-403.369 821.126,-381.527 882.862,-365.521"/>
<polygon fill="black" stroke="black" points="883.766,-368.903 892.567,-363.005 882.009,-362.127 883.766,-368.903"/>
</g>
<!-- kernel_init_freeable -->
<g id="node15" class="node"><title>kernel_init_freeable</title>
<text text-anchor="middle" x="240.159" y="-209.8" font-family="Times,serif" font-size="14.00">kernel_init_freeable</text>
</g>
<!-- kernel_init&#45;&gt;kernel_init_freeable -->
<g id="edge14" class="edge"><title>kernel_init&#45;&gt;kernel_init_freeable</title>
<path fill="none" stroke="black" d="M340.835,-319.736C318.775,-296.786 285.836,-262.52 263.703,-239.494"/>
<polygon fill="black" stroke="black" points="266.096,-236.933 256.643,-232.149 261.05,-241.784 266.096,-236.933"/>
</g>
<!-- try_to_run_init_process -->
<g id="node16" class="node"><title>try_to_run_init_process</title>
<text text-anchor="start" x="330.422" y="-270.4" font-family="monospace" font-size="12.00"> </text>
<text text-anchor="start" x="330.422" y="-258.4" font-family="monospace" font-size="12.00"> &#160;&#160;&#160;&#160;&#160;&#160;&#160;&#160;&#160;&#160;&#160;if (ramdisk_execute_command) &#160;</text>
<text text-anchor="start" x="330.422" y="-246.4" font-family="monospace" font-size="12.00"> &#160;&#160;&#160;&#160;&#160;&#160;&#160;&#160;&#160;&#160;&#160;&#160;&#160;&#160;{ run_init_process(ramdisk_execute_command); } </text>
<text text-anchor="start" x="330.422" y="-234.4" font-family="monospace" font-size="12.00"> &#160;&#160;&#160;&#160;&#160;&#160;&#160;&#160;&#160;&#160;&#160;if (execute_command) &#160;</text>
<text text-anchor="start" x="330.422" y="-222.4" font-family="monospace" font-size="12.00"> &#160;&#160;&#160;&#160;&#160;&#160;&#160;&#160;&#160;&#160;&#160;&#160;&#160;&#160;{ run_init_process(execute_command); } </text>
<text text-anchor="start" x="330.422" y="-210.4" font-family="monospace" font-size="12.00"> &#160;&#160;&#160;&#160;&#160;&#160;&#160;&#160;&#160;&#160;&#160;</text>
<text text-anchor="start" x="330.422" y="-198.4" font-family="monospace" font-size="12.00"> &#160;&#160;&#160;&#160;&#160;&#160;&#160;&#160;&#160;&#160;&#160;if (!try_to_run_init_process(&quot;/sbin/init&quot;) || </text>
<text text-anchor="start" x="330.422" y="-186.4" font-family="monospace" font-size="12.00"> &#160;&#160;&#160;&#160;&#160;&#160;&#160;&#160;&#160;&#160;&#160;&#160;&#160;&#160;&#160;!try_to_run_init_process(&quot;/etc/init&quot;) &#160;|| </text>
<text text-anchor="start" x="330.422" y="-174.4" font-family="monospace" font-size="12.00"> &#160;&#160;&#160;&#160;&#160;&#160;&#160;&#160;&#160;&#160;&#160;&#160;&#160;&#160;&#160;!try_to_run_init_process(&quot;/bin/init&quot;) &#160;|| </text>
<text text-anchor="start" x="330.422" y="-162.4" font-family="monospace" font-size="12.00"> &#160;&#160;&#160;&#160;&#160;&#160;&#160;&#160;&#160;&#160;&#160;&#160;&#160;&#160;&#160;!try_to_run_init_process(&quot;/bin/sh&quot;)) &#160;</text>
<text text-anchor="start" x="330.422" y="-150.4" font-family="monospace" font-size="12.00"> &#160;&#160;&#160;&#160;&#160;&#160;&#160;&#160;&#160;&#160;&#160;&#160;&#160;&#160;&#160;&#160;&#160;&#160;&#160;return 0; </text>
</g>
<!-- kernel_init&#45;&gt;try_to_run_init_process -->
<g id="edge15" class="edge"><title>kernel_init&#45;&gt;try_to_run_init_process</title>
<path fill="none" stroke="black" d="M387.67,-319.736C395.694,-311.455 405.146,-301.701 414.999,-291.533"/>
<polygon fill="black" stroke="black" points="417.784,-293.689 422.229,-284.072 412.756,-288.818 417.784,-293.689"/>
</g>
<!-- cpu_idle_loop -->
<g id="node12" class="node"><title>cpu_idle_loop</title>
<text text-anchor="middle" x="958.159" y="-216.8" font-family="Times,serif" font-size="14.00">[pid=0]]</text>
<text text-anchor="middle" x="958.159" y="-202.8" font-family="Times,serif" font-size="14.00"> cpu_idle_loop</text>
</g>
<!-- cpu_startup_entry&#45;&gt;cpu_idle_loop -->
<g id="edge11" class="edge"><title>cpu_startup_entry&#45;&gt;cpu_idle_loop</title>
<path fill="none" stroke="black" d="M958.159,-326.87C958.159,-305.281 958.159,-267.912 958.159,-242.352"/>
<polygon fill="black" stroke="black" points="961.659,-242.201 958.159,-232.201 954.659,-242.201 961.659,-242.201"/>
</g>
<!-- schedule_preempt_disabled -->
<g id="node13" class="node"><title>schedule_preempt_disabled</title>
<text text-anchor="middle" x="958.159" y="-85.8" font-family="Times,serif" font-size="14.00">schedule_preempt_disabled</text>
</g>
<!-- cpu_idle_loop&#45;&gt;schedule_preempt_disabled -->
<g id="edge12" class="edge"><title>cpu_idle_loop&#45;&gt;schedule_preempt_disabled</title>
<path fill="none" stroke="black" d="M958.159,-195.779C958.159,-175.616 958.159,-141.964 958.159,-118.247"/>
<polygon fill="black" stroke="black" points="961.659,-118.133 958.159,-108.133 954.659,-118.133 961.659,-118.133"/>
</g>
<!-- schedule -->
<g id="node14" class="node"><title>schedule</title>
<text text-anchor="middle" x="958.159" y="-13.8" font-family="Times,serif" font-size="14.00">schedule</text>
</g>
<!-- schedule_preempt_disabled&#45;&gt;schedule -->
<g id="edge13" class="edge"><title>schedule_preempt_disabled&#45;&gt;schedule</title>
<path fill="none" stroke="black" d="M958.159,-71.6966C958.159,-63.9827 958.159,-54.7125 958.159,-46.1124"/>
<polygon fill="black" stroke="black" points="961.659,-46.1043 958.159,-36.1043 954.659,-46.1044 961.659,-46.1043"/>
</g>
<!-- do_basic_setup -->
<g id="node17" class="node"><title>do_basic_setup</title>
<text text-anchor="middle" x="51.1587" y="-85.8" font-family="Times,serif" font-size="14.00">do_basic_setup</text>
</g>
<!-- kernel_init_freeable&#45;&gt;do_basic_setup -->
<g id="edge16" class="edge"><title>kernel_init_freeable&#45;&gt;do_basic_setup</title>
<path fill="none" stroke="black" d="M213.48,-195.779C180.133,-174.253 122.97,-137.355 86.1435,-113.583"/>
<polygon fill="black" stroke="black" points="88.001,-110.616 77.7012,-108.133 84.2047,-116.497 88.001,-110.616"/>
</g>
<!-- sys_open(&quot;/dev/console&quot;, O_RDWR, 0) -->
<g id="node18" class="node"><title>sys_open(&quot;/dev/console&quot;, O_RDWR, 0)</title>
<text text-anchor="middle" x="240.159" y="-85.8" font-family="Times,serif" font-size="14.00">sys_open(&quot;/dev/console&quot;, O_RDWR, 0)</text>
</g>
<!-- kernel_init_freeable&#45;&gt;sys_open(&quot;/dev/console&quot;, O_RDWR, 0) -->
<g id="edge17" class="edge"><title>kernel_init_freeable&#45;&gt;sys_open(&quot;/dev/console&quot;, O_RDWR, 0)</title>
<path fill="none" stroke="black" d="M240.159,-195.779C240.159,-175.616 240.159,-141.964 240.159,-118.247"/>
<polygon fill="black" stroke="black" points="243.659,-118.133 240.159,-108.133 236.659,-118.133 243.659,-118.133"/>
</g>
<!-- load_default_modules -->
<g id="node19" class="node"><title>load_default_modules</title>
<text text-anchor="middle" x="448.159" y="-85.8" font-family="Times,serif" font-size="14.00">load_default_modules</text>
</g>
<!-- kernel_init_freeable&#45;&gt;load_default_modules -->
<g id="edge18" class="edge"><title>kernel_init_freeable&#45;&gt;load_default_modules</title>
<path fill="none" stroke="black" d="M254.892,-195.723C268.674,-180.44 290.486,-158.394 313.159,-144 333.99,-130.774 358.656,-119.908 381.168,-111.532"/>
<polygon fill="black" stroke="black" points="382.454,-114.789 390.667,-108.095 380.073,-108.207 382.454,-114.789"/>
</g>
<!-- load_default_elevator_module -->
<g id="node20" class="node"><title>load_default_elevator_module</title>
<text text-anchor="middle" x="448.159" y="-13.8" font-family="Times,serif" font-size="14.00">load_default_elevator_module</text>
</g>
<!-- load_default_modules&#45;&gt;load_default_elevator_module -->
<g id="edge19" class="edge"><title>load_default_modules&#45;&gt;load_default_elevator_module</title>
<path fill="none" stroke="black" d="M448.159,-71.6966C448.159,-63.9827 448.159,-54.7125 448.159,-46.1124"/>
<polygon fill="black" stroke="black" points="451.659,-46.1043 448.159,-36.1043 444.659,-46.1044 451.659,-46.1043"/>
</g>
</g>
</svg>
